<svg xmlns="http://www.w3.org/2000/svg" xmlns:xlink="http://www.w3.org/1999/xlink" width="102" height="92" viewBox="0 0 102 92">
  <defs>
    <style>
      .cls-1 {
        fill-rule: evenodd;
        fill: url(#linear-gradient);
      }
    </style>
    <linearGradient id="linear-gradient" x1="462" y1="628" x2="462" y2="720" gradientUnits="userSpaceOnUse">
      <stop offset="0" stop-color="#cd9efa"/>
      <stop offset="1" stop-color="#7c6cf1"/>
    </linearGradient>
  </defs>
  <path id="icon_04" class="cls-1" d="M486.65,628A34.96,34.96,0,0,0,462,638.256,34.96,34.96,0,0,0,437.35,628C422.575,628,411,642.309,411,660.571c0,15.269,7.845,35.035,28.441,48.828a1.675,1.675,0,0,0,.423.288,88.433,88.433,0,0,0,21.612,10.22,1.72,1.72,0,0,0,1.048,0C499.781,707.85,513,680.41,513,660.571,513,642.309,501.425,628,486.65,628h0ZM462,716.488a84.913,84.913,0,0,1-19.956-9.44,19.8,19.8,0,0,1,.9-13.183,63.412,63.412,0,0,1,6.45-9.2c1.928-2.357,3.459-4.006,3.475-4.022a1.7,1.7,0,0,0-2.487-2.325c-0.06.065-1.4,1.511-3.188,3.668a98.91,98.91,0,0,0-11.827,2.177,8.076,8.076,0,0,1-8.252-1.469,8.651,8.651,0,0,1-2.327-7.812,3.076,3.076,0,0,1,1.923-2.406c2.873-.827,3.811.378,5.015,2.464,0.591,1.022,1.591,2.726,3.4,2.2l19.528-5.621a7.826,7.826,0,0,1,4.08-.152,7.435,7.435,0,0,0-.029,1.146c0.17,3.142,2.135,6.536,5.64,9.955-0.112,1.7-.319,3.066-0.357,3.262-0.647,3.14-4.173,7.522-8.387,10.42a1.7,1.7,0,0,0,1.926,2.809c5.022-3.456,8.959-8.5,9.8-12.573,0.04-.216.1-0.63,0.171-1.167a71,71,0,0,0,11.9,7.422,1.7,1.7,0,0,0,1.535-3.042c-13.561-6.869-18.622-13.428-18.836-17.275a3.178,3.178,0,0,1,1.455-3.033c4.722-3.1,13.569-.157,13.658-0.128a1.7,1.7,0,0,0,1.094-3.225,31.39,31.39,0,0,0-5.977-1.282,16.73,16.73,0,0,1-1.27-9.056,16.169,16.169,0,0,1,6.368-10.847,15.728,15.728,0,0,1,11.9-2.933c11.181,1.719,14.62,13.726,13.485,21.694a22.613,22.613,0,0,1-7.036,12.3,5.154,5.154,0,0,0-1.289,1.858,8.713,8.713,0,0,0-4.262-2.032l-14.95-2.785-0.613,3.345,14.949,2.785c1.675,0.314,3.711,1.167,4.653,4.961a24.537,24.537,0,0,1-.156,7.324,45.44,45.44,0,0,1-3.91,9.286l-0.2.364a79.137,79.137,0,0,1-28,15.562h0Zm34.967-22.769a14.864,14.864,0,0,0,.485-1.819,29.338,29.338,0,0,0,.132-8.957c-0.285-2.749-.316-3.86.5-4.614a25.546,25.546,0,0,0,8.1-14.317c1.574-11.084-4.106-23.678-16.328-25.551a19.092,19.092,0,0,0-14.451,3.565,19.535,19.535,0,0,0-7.706,13.116,20.219,20.219,0,0,0,.9,9.369,13.493,13.493,0,0,0-6.9,1.933,6.735,6.735,0,0,0-1.8,1.729,11,11,0,0,0-6.181.077l-18.792,5.413c-0.085-.14-0.17-0.291-0.248-0.422-1.059-1.837-3.247-5.661-8.9-4.032a6.363,6.363,0,0,0-4.283,4.858,12.09,12.09,0,0,0,3.268,11.087,10.422,10.422,0,0,0,7.434,2.9,14.912,14.912,0,0,0,4.117-.613,71.609,71.609,0,0,1,7.839-1.567,54.844,54.844,0,0,0-4.192,6.367,22.419,22.419,0,0,0-1.928,11.982c-17.041-12.878-23.63-30.144-23.63-43.648,0-16.353,10.081-29.164,22.95-29.164a31.989,31.989,0,0,1,22.411,9.442l-4.155,5.183a1.7,1.7,0,1,0,2.654,2.133l5.068-6.323a31.716,31.716,0,0,1,23.322-10.435c12.869,0,22.95,12.811,22.95,29.164A53.076,53.076,0,0,1,496.967,693.719Zm-6.058-27.1a5.056,5.056,0,0,0,3.877.441,5.114,5.114,0,0,0,1.063-9.382,1.7,1.7,0,1,0-1.648,2.979,1.7,1.7,0,0,1-1.645,2.983,1.7,1.7,0,1,0-1.647,2.979h0Z" transform="translate(-411 -628)"/>
</svg>
