<svg xmlns="http://www.w3.org/2000/svg" xmlns:xlink="http://www.w3.org/1999/xlink" width="83" height="96" viewBox="0 0 83 96">
  <defs>
    <style>
      .cls-1 {
        fill-rule: evenodd;
        fill: url(#linear-gradient);
      }
    </style>
    <linearGradient id="linear-gradient" x1="950.5" y1="342" x2="950.5" y2="246" gradientUnits="userSpaceOnUse">
      <stop offset="0" stop-color="#ff828d"/>
      <stop offset="0.987" stop-color="#ffa77a"/>
      <stop offset="1" stop-color="#ffa77a"/>
    </linearGradient>
  </defs>
  <path id="icon_02" class="cls-1" d="M945.384,318h35.363a4.81,4.81,0,0,0,4.821-4.8V294a4.81,4.81,0,0,0-4.821-4.8H945.384a4.812,4.812,0,0,0-4.823,4.8v19.2A4.812,4.812,0,0,0,945.384,318Zm-1.607-24a1.6,1.6,0,0,1,1.607-1.6h35.363a1.6,1.6,0,0,1,1.607,1.6v19.2a1.6,1.6,0,0,1-1.607,1.6H945.384a1.6,1.6,0,0,1-1.607-1.6V294Zm-26.772,47.99a8.015,8.015,0,0,0,5.158-1.869l2.055-1.719a8.048,8.048,0,0,0,6.7,3.6h53.044A8.029,8.029,0,0,0,992,334V279.6a8.012,8.012,0,0,0-8.038-8,4.82,4.82,0,0,1-4.526-3.2h4.147a5.194,5.194,0,0,0,5.2-5.178v-8.467A8.786,8.786,0,0,0,979.988,246H946.142a8.786,8.786,0,0,0-8.8,8.755v8.467a5.2,5.2,0,0,0,5.2,5.178H946.7a4.74,4.74,0,0,1-4.528,3.2,8.029,8.029,0,0,0-8.037,8v37.741a8.066,8.066,0,0,0-9.987.25L911.831,327.88A7.986,7.986,0,0,0,917.005,341.99ZM926.1,334a4.811,4.811,0,0,1,4.822-4.8h6.43v9.6h-6.43A4.811,4.811,0,0,1,926.1,334Zm16.074,4.8h-1.608v-9.6h6.431a4.8,4.8,0,1,1,0,9.6h-4.823Zm-1.608-75.578v-8.467a5.577,5.577,0,0,1,5.581-5.555h33.846a5.575,5.575,0,0,1,5.58,5.555v8.467a1.983,1.983,0,0,1-1.986,1.978H942.549A1.986,1.986,0,0,1,940.561,263.222ZM937.347,279.6a4.811,4.811,0,0,1,4.822-4.8,8.009,8.009,0,0,0,7.876-6.4h26.04a8.041,8.041,0,0,0,7.876,6.4,4.8,4.8,0,0,1,4.822,4.8V334a4.811,4.811,0,0,1-4.822,4.8H953.379a7.893,7.893,0,0,0,1.649-4.8,8.027,8.027,0,0,0-8.036-8h-10a7.932,7.932,0,0,0,.357-2.288V279.6Zm-11.135,40.44a4.838,4.838,0,0,1,6.785.59,4.712,4.712,0,0,1,1.135,3.082,4.817,4.817,0,0,1-.585,2.288h-2.63a7.991,7.991,0,0,0-5.315,2.047l-4.094-4.076ZM913.9,330.33l5.144-4.293,4.611,4.6a7.235,7.235,0,0,0-.642,4.6l-2.916,2.429a4.838,4.838,0,0,1-6.785-.588A4.763,4.763,0,0,1,913.9,330.33Zm34.7-31.53h3.215a1.6,1.6,0,1,0,0-3.2H948.6A1.6,1.6,0,1,0,948.6,298.8Zm9.645,0h19.289a1.6,1.6,0,1,0,0-3.2H958.243A1.6,1.6,0,1,0,958.243,298.8ZM948.6,311.6h3.215a1.6,1.6,0,1,0,0-3.2H948.6A1.6,1.6,0,1,0,948.6,311.6Zm28.934-3.2H958.243a1.6,1.6,0,1,0,0,3.2h19.289A1.6,1.6,0,1,0,977.532,308.4Zm0-6.4h-3.215a1.6,1.6,0,1,0,0,3.2h3.215A1.6,1.6,0,1,0,977.532,302ZM948.6,305.2h19.29a1.6,1.6,0,1,0,0-3.2H948.6A1.6,1.6,0,1,0,948.6,305.2Zm0-49.6a1.607,1.607,0,0,0-3.214,0v4.8a1.607,1.607,0,0,0,3.214,0v-4.8Zm4.823,6.4a1.6,1.6,0,0,0,1.607-1.6v-4.8a1.608,1.608,0,0,0-3.215,0v4.8A1.6,1.6,0,0,0,953.421,262Zm6.429,0a1.6,1.6,0,0,0,1.607-1.6v-4.8a1.607,1.607,0,0,0-3.214,0v4.8A1.6,1.6,0,0,0,959.85,262Zm6.43,0a1.6,1.6,0,0,0,1.608-1.6v-4.8a1.608,1.608,0,0,0-3.216,0v4.8A1.605,1.605,0,0,0,966.28,262Zm6.429,0a1.6,1.6,0,0,0,1.608-1.6v-4.8a1.608,1.608,0,0,0-3.215,0v4.8A1.6,1.6,0,0,0,972.709,262Zm6.43,0a1.6,1.6,0,0,0,1.608-1.6v-4.8a1.608,1.608,0,0,0-3.215,0v4.8A1.6,1.6,0,0,0,979.139,262Z" transform="translate(-909 -246)"/>
</svg>
