<svg xmlns="http://www.w3.org/2000/svg" xmlns:xlink="http://www.w3.org/1999/xlink" width="96" height="92" viewBox="0 0 96 92">
  <defs>
    <style>
      .cls-1 {
        fill-rule: evenodd;
        fill: url(#linear-gradient);
      }
    </style>
    <linearGradient id="linear-gradient" x1="1439" y1="338" x2="1439" y2="246" gradientUnits="userSpaceOnUse">
      <stop offset="0" stop-color="#6f6af4"/>
      <stop offset="1" stop-color="#bc68fe"/>
    </linearGradient>
  </defs>
  <path id="icon_03" class="cls-1" d="M1431,252.43h-3.2a6.357,6.357,0,0,0-5.51,3.229h-8.16c-8.7-9.526-23.13-3.531-23.13,5.65,0,9.242,14.5,15.114,23.12,5.651h7.28v3.229h-4.8a4.823,4.823,0,0,0-4.8,4.844v6.637c-10.47,6.409-16,15.814-16,27.267a33.744,33.744,0,0,0,13.05,26.817,10.938,10.938,0,0,0,6.7,2.244h27.7a10.838,10.838,0,0,0,6.64-2.207,34.1,34.1,0,0,0,13.09-28.075c-0.39-10.8-5.92-19.759-15.98-25.965v-6.718a4.823,4.823,0,0,0-4.8-4.844h-4.8v-11.3A6.432,6.432,0,0,0,1431,252.43Zm-36.8,8.879c0-5.812,9.57-10.476,16.57-4.431a5.61,5.61,0,0,0,0,8.863C1403.73,271.818,1394.2,267.093,1394.2,261.309Zm20,2.422a2.422,2.422,0,0,1,0-4.843h7.2v4.843h-7.2Zm10.4-4.843a3.212,3.212,0,0,1,3.2-3.229h3.2a3.212,3.212,0,0,1,3.2,3.229v11.3h-9.6v-11.3Zm23.34,74.344a7.653,7.653,0,0,1-4.69,1.537h-27.7a7.727,7.727,0,0,1-4.75-1.569,30.433,30.433,0,0,1-11.37-19.071c7.76,5.887,19.74,4.521,28.57.338,10.44-4.954,14.75-11.442,30.5-14.046a30.575,30.575,0,0,1-10.56,32.811h0Zm9.35-35.884c-15.97,2.835-20.66,9.443-30.65,14.2-9.04,4.284-21.43,5.327-27.64-2.284-0.1-10.577,5.01-18.759,13.7-24.379,1.6,1.632,5.85,3.068,16.69,3.068,10.72,0,15-1.4,16.64-3.01a30.3,30.3,0,0,1,11.26,12.409h0Zm-13.49-22.315v7.575c-0.39.61-3.63,2.112-14.4,2.112-10.92,0-14.11-1.542-14.4-2.067v-7.62a1.61,1.61,0,0,1,1.6-1.615h25.6A1.61,1.61,0,0,1,1443.8,275.033ZM1431,260.5a1.615,1.615,0,1,1-1.6,1.615A1.61,1.61,0,0,1,1431,260.5Zm-24.4,33.541c-1.64,1.718-4.4,5.725-4.4,13.279a1.6,1.6,0,1,0,3.2,0c0-6.658,2.45-9.935,3.5-11.035a1.615,1.615,0,0,0-.04-2.283,1.587,1.587,0,0,0-2.26.039h0Zm5.2-4.48a1.615,1.615,0,1,1-1.6,1.615A1.61,1.61,0,0,1,1411.8,289.563Zm30.4-29.061c0.72,0,.32.162,7.36-5.166a1.62,1.62,0,0,0-.33-2.776,1.59,1.59,0,0,0-1.59.193l-6.4,4.843a1.622,1.622,0,0,0-.56,1.8,1.6,1.6,0,0,0,1.52,1.1h0Zm-0.96,4.521c6.83,5.166,6.62,5.166,7.36,5.166a1.605,1.605,0,0,0,1.52-1.1,1.638,1.638,0,0,0-.56-1.8l-6.4-4.843a1.59,1.59,0,0,0-2.24.322,1.622,1.622,0,0,0,.32,2.261h0Zm31.85-12.567a11.134,11.134,0,0,0-20.69,1.166,11.324,11.324,0,0,0,3.29,12.172,12.971,12.971,0,0,0-3.12,13.687,12.731,12.731,0,0,0,23.29,1.617A14.528,14.528,0,0,0,1473.09,252.456Zm-9.34,21.429a1.591,1.591,0,0,0-2.78.349,1.619,1.619,0,0,0,.25,1.624,14.205,14.205,0,0,0,10.57,5.586,9.546,9.546,0,0,1-10.41,2.723,9.723,9.723,0,0,1-.74-17.961,1.6,1.6,0,0,0,.98-1.31,1.622,1.622,0,0,0-.66-1.5,1.587,1.587,0,0,0-1.62-.136c-0.35.161-.66,0.371-0.99,0.558a8.08,8.08,0,0,1,3.13-14.478,7.966,7.966,0,0,1,8.13,3.426,13.968,13.968,0,0,0-5.23,2.286,1.626,1.626,0,0,0-.38,2.251,1.59,1.59,0,0,0,2.23.384,11.129,11.129,0,0,1,15.47,2.685,11.365,11.365,0,0,1-2.39,15.659,11.136,11.136,0,0,1-15.56-2.146h0Zm10.45-15a1.615,1.615,0,0,0,0,3.229,2.989,2.989,0,0,1,2.32.883,3.092,3.092,0,0,1,.88,2.346,1.6,1.6,0,1,0,3.2,0,6.312,6.312,0,0,0-1.82-4.622A6.187,6.187,0,0,0,1474.2,258.888Z" transform="translate(-1391 -246)"/>
</svg>
