<svg xmlns="http://www.w3.org/2000/svg" xmlns:xlink="http://www.w3.org/1999/xlink" width="102" height="102" viewBox="0 0 102 102">
  <defs>
    <style>
      .cls-1 {
        fill-rule: evenodd;
        fill: url(#linear-gradient);
      }
    </style>
    <linearGradient id="linear-gradient" x1="1437" y1="626" x2="1437" y2="728" gradientUnits="userSpaceOnUse">
      <stop offset="0" stop-color="#7dc9ff"/>
      <stop offset="1" stop-color="#239bf6"/>
    </linearGradient>
  </defs>
  <path id="icon_06" class="cls-1" d="M1463.16,637.3l-25.5-11.163a1.7,1.7,0,0,0-1.36,0L1410.79,637.3a1.7,1.7,0,0,0-1.02,1.557V665.55a18.709,18.709,0,0,0,7.76,15.144l17.62,12.712a3.116,3.116,0,0,0,3.65,0l17.63-12.71a18.7,18.7,0,0,0,7.75-15.144V638.859A1.7,1.7,0,0,0,1463.16,637.3Zm-2.38,28.25a15.28,15.28,0,0,1-6.34,12.386l-17.46,12.593-17.46-12.593a15.316,15.316,0,0,1-6.35-12.386V639.971l23.81-10.418,23.8,10.418v25.581Zm-24.48-31.99-18.71,8.187a1.7,1.7,0,0,0-1.02,1.557v22.246a11.918,11.918,0,0,0,4.93,9.629l14.48,10.442a1.7,1.7,0,0,0,1.99,0l14.48-10.442a11.89,11.89,0,0,0,4.93-9.629V643.306a1.7,1.7,0,0,0-1.02-1.557l-18.7-8.187A1.7,1.7,0,0,0,1436.3,633.562Zm17.68,10.855v21.135a8.474,8.474,0,0,1-3.52,6.871l-13.48,9.725-13.49-9.725a8.528,8.528,0,0,1-3.52-6.871V644.417l17.01-7.442Zm-53.93,38.021-3.67-8.592a5.422,5.422,0,1,0-9.92,4.378l6.66,14.656a18.108,18.108,0,0,0,3.69,5.328l10.48,10.479a3.373,3.373,0,0,0-.92,2.312v13.6a3.4,3.4,0,0,0,3.4,3.4h18.71a3.4,3.4,0,0,0,3.4-3.4V711a3.405,3.405,0,0,0-3.4-3.4v-3.163a17.86,17.86,0,0,0-3.73-11.136,12.285,12.285,0,0,0-5.67-4.133,33.613,33.613,0,0,1-9.73-6.246A7.834,7.834,0,0,0,1400.05,682.438Zm28.43,42.162h-18.71V711h18.71v13.6Zm-6.39-29.176a14.391,14.391,0,0,1,2.99,9.012V707.6h-14.06l-11.8-11.8a14.532,14.532,0,0,1-3-4.33l-6.67-14.656a2.022,2.022,0,1,1,3.7-1.632l3.8,8.869a20.093,20.093,0,0,0,4.29,6.333l7.77,7.768a1.7,1.7,0,1,0,2.4-2.4l-7.76-7.768a16.09,16.09,0,0,1-2.1-2.55,4.426,4.426,0,0,1,5.51.092,36.245,36.245,0,0,0,10.85,6.868A8.947,8.947,0,0,1,1422.09,695.424Zm1.29,20.676h-1.71a1.7,1.7,0,1,0,0,3.4h1.71A1.7,1.7,0,0,0,1423.38,716.1Zm57.45-23.22,6.67-14.656a5.422,5.422,0,1,0-9.92-4.378l-3.67,8.56a7.84,7.84,0,0,0-9.3.51,33.528,33.528,0,0,1-9.74,6.246,12.207,12.207,0,0,0-5.66,4.133,17.812,17.812,0,0,0-3.73,11.141V707.6a3.4,3.4,0,0,0-3.4,3.4v13.6a3.4,3.4,0,0,0,3.4,3.4h18.7a3.407,3.407,0,0,0,3.41-3.4V711a3.429,3.429,0,0,0-.93-2.312l10.48-10.479A17.922,17.922,0,0,0,1480.83,692.88Zm-16.65,31.72h-18.7V711h18.7v13.6Zm-1.24-17h-14.06v-3.163a14.443,14.443,0,0,1,2.98-9.011,8.97,8.97,0,0,1,4.08-3.031,36.205,36.205,0,0,0,10.85-6.868,4.424,4.424,0,0,1,5.52-.107,16.234,16.234,0,0,1-2.11,2.567l-7.76,7.767a1.7,1.7,0,0,0,2.4,2.4l7.77-7.767a20.115,20.115,0,0,0,4.29-6.333l3.8-8.871a2.022,2.022,0,0,1,1.86-1.224,2.021,2.021,0,0,1,1.84,2.858l-6.67,14.656a14.73,14.73,0,0,1-3,4.33Zm-10.66,8.5h-1.7a1.7,1.7,0,1,0,0,3.4h1.7A1.7,1.7,0,1,0,1452.28,716.1Zm-24.48-54.062a1.7,1.7,0,0,0-2.04,2.72l6.8,5.1a1.684,1.684,0,0,0,1.02.34,1.654,1.654,0,0,0,.28-0.024,1.686,1.686,0,0,0,1.13-.733l13.61-20.4a1.741,1.741,0,0,0,.11-1.7,1.7,1.7,0,0,0-1.42-.943,1.678,1.678,0,0,0-1.52.753l-12.61,18.906Z" transform="translate(-1386 -626)"/>
</svg>
