<svg xmlns="http://www.w3.org/2000/svg" xmlns:xlink="http://www.w3.org/1999/xlink" width="98" height="98" viewBox="0 0 98 98">
  <defs>
    <style>
      .cls-1 {
        fill-rule: evenodd;
        fill: url(#linear-gradient);
      }
    </style>
    <linearGradient id="linear-gradient" x1="950" y1="628" x2="950" y2="726" gradientUnits="userSpaceOnUse">
      <stop offset="0" stop-color="#6af1ae"/>
      <stop offset="1" stop-color="#34c87a"/>
    </linearGradient>
  </defs>
  <path id="icon_05" class="cls-1" d="M901,680.267a14.72,14.72,0,0,0,14.7,14.7H932.04V711.3a14.72,14.72,0,0,0,14.7,14.7h6.534a14.72,14.72,0,0,0,14.7-14.7v-9.619a6.812,6.812,0,0,1,1.634-.181,6.326,6.326,0,0,1,4.043,1.357,9.642,9.642,0,0,0,5.908,1.91,7.516,7.516,0,0,0,7.286-4.752,12.19,12.19,0,0,0-2.9-12.74,24.045,24.045,0,0,1-3.48-4.736c-2.159-3.527-4.391-7.172-10.852-7.172s-8.693,3.645-10.852,7.17a24.081,24.081,0,0,1-3.48,4.737,12.189,12.189,0,0,0-2.905,12.74,7.516,7.516,0,0,0,7.286,4.753,9.2,9.2,0,0,0,5.05-1.367v7.9a11.447,11.447,0,0,1-11.436,11.433h-6.534A11.447,11.447,0,0,1,935.307,711.3V694.967a3.267,3.267,0,0,0-3.267-3.267H915.7a11.448,11.448,0,0,1-11.436-11.433v-6.534A11.448,11.448,0,0,1,915.7,662.3H932.04a3.267,3.267,0,0,0,3.267-3.267V642.7a11.447,11.447,0,0,1,11.436-11.433h6.534A11.447,11.447,0,0,1,964.713,642.7v12.5a7.479,7.479,0,0,0-6.471-2.6,7.351,7.351,0,0,0-5.412,4.116,13.123,13.123,0,0,0,2.081,14.476,7.567,7.567,0,0,0,5.417,2.492,6.649,6.649,0,0,0,.935-0.066,7.356,7.356,0,0,0,5.412-4.116,11.942,11.942,0,0,0,1.305-5.577V642.7a14.72,14.72,0,0,0-14.7-14.7h-6.534a14.72,14.72,0,0,0-14.7,14.7v16.333H915.7a14.72,14.72,0,0,0-14.7,14.7v6.534ZM959.663,701.5a4.261,4.261,0,0,1-4.262-2.728,9.062,9.062,0,0,1,2.184-9.179,26.922,26.922,0,0,0,3.967-5.349c2.065-3.38,3.432-5.611,8.062-5.611s6,2.231,8.065,5.611a26.922,26.922,0,0,0,3.967,5.349,9.061,9.061,0,0,1,2.181,9.179,4.261,4.261,0,0,1-4.262,2.728,6.417,6.417,0,0,1-4.116-1.374,9.939,9.939,0,0,0-11.67,0A6.417,6.417,0,0,1,959.663,701.5Zm4.122-33.516a3.758,3.758,0,0,1-6.535.939,9.881,9.881,0,0,1-1.535-10.674,4.182,4.182,0,0,1,2.986-2.407c2.637-.374,5.331,2.634,5.9,6.577a10.724,10.724,0,0,1,.109,1.487v0.027a8.626,8.626,0,0,1-.923,4.051h0Zm-20.254,1.944c-3.243,1.571-4.282,6.146-2.318,10.2a8.346,8.346,0,0,0,7.085,5.03,5.354,5.354,0,0,0,2.359-.534c3.243-1.571,4.282-6.147,2.316-10.2s-6.2-6.07-9.442-4.5h0Zm5.7,11.76c-1.6.774-3.92-.6-5.079-2.984s-0.79-5.064.8-5.835a2.22,2.22,0,0,1,.981-0.217,5.181,5.181,0,0,1,4.1,3.2c1.154,2.388.788,5.067-.807,5.833v0Zm28.733-8.062a6.649,6.649,0,0,0,.935.066,7.576,7.576,0,0,0,5.417-2.492,13.123,13.123,0,0,0,2.081-14.476,7.351,7.351,0,0,0-5.412-4.116c-4.452-.64-8.763,3.552-9.6,9.347a12.5,12.5,0,0,0,1.163,7.555,7.356,7.356,0,0,0,5.412,4.116h0Zm-3.341-11.207c0.536-3.719,2.967-6.61,5.449-6.61a3.073,3.073,0,0,1,.449.033,4.182,4.182,0,0,1,2.986,2.407,9.881,9.881,0,0,1-1.535,10.674,3.758,3.758,0,0,1-6.535-.939A9.2,9.2,0,0,1,974.624,662.419Zm13.94,22.205a5.357,5.357,0,0,0,2.359.534,8.35,8.35,0,0,0,7.086-5.032c1.96-4.052.924-8.627-2.318-10.2s-7.478.447-9.443,4.5S985.328,683.053,988.564,684.624ZM993.3,672.65a2.213,2.213,0,0,1,.98.218c1.593,0.771,1.961,3.444.8,5.834s-3.486,3.757-5.077,2.984-1.96-3.445-.8-5.834a5.18,5.18,0,0,1,4.1-3.2h0Zm-82.5,1.083a4.9,4.9,0,0,1,4.9-4.9,1.633,1.633,0,1,0,0-3.266,8.176,8.176,0,0,0-8.168,8.166A1.634,1.634,0,1,0,910.8,673.733Zm13.069-4.9a1.633,1.633,0,1,0,0-3.266h-1.633a1.633,1.633,0,1,0,0,3.266h1.633Z" transform="translate(-901 -628)"/>
</svg>
