<svg id="excellent_services" xmlns="http://www.w3.org/2000/svg" xmlns:xlink="http://www.w3.org/1999/xlink" width="125" height="125" viewBox="0 0 125 125">
  <defs>
    <style>
      .cls-1 {
        stroke-width: 1px;
        fill: url(#linear-gradient);
        stroke: url(#linear-gradient-2);
      }

      .cls-2 {
        fill: #fff;
        fill-rule: evenodd;
      }
    </style>
    <linearGradient id="linear-gradient" x1="62.5" y1="0.5" x2="62.5" y2="124.5" gradientUnits="userSpaceOnUse">
      <stop offset="0" stop-color="#46ccd7"/>
      <stop offset="1" stop-color="#01a8d5"/>
    </linearGradient>
    <linearGradient id="linear-gradient-2" y1="124.5" y2="0.5" xlink:href="#linear-gradient"/>
  </defs>
  <circle class="cls-1" cx="62.5" cy="62.5" r="62"/>
  <path class="cls-2" d="M430,374.968a1,1,0,0,0-.288-0.705l-13.789-13.984a1,1,0,0,0-1.39,0l-6.884,6.982a6.2,6.2,0,0,0-7.636.184,6.168,6.168,0,0,0-6.659.455l-6.887-6.986a0.973,0.973,0,0,0-1.39,0L371.288,374.9a1.007,1.007,0,0,0,0,1.41l6.829,6.926a6.462,6.462,0,0,0,.065,8.965l1.192,1.209a4.637,4.637,0,0,0-.9,4.976,4.522,4.522,0,0,0,4.162,2.788,4.258,4.258,0,0,0,.539-0.053,4.6,4.6,0,0,0,1.09,3.6,4.471,4.471,0,0,0,3.384,1.54c0.057,0,.113-0.015.169-0.017a3.688,3.688,0,0,0,1.734,3.691,3.576,3.576,0,0,0,4.024-.228,3.6,3.6,0,0,0,6.05,1.567l0.559-.566,1.185,1.2a3.581,3.581,0,0,0,3.47.981,3.638,3.638,0,0,0,2.581-2.548,3.545,3.545,0,0,0,4.05.275,3.656,3.656,0,0,0,1.707-3.735c0.056,0,.111.017,0.168,0.017a4.567,4.567,0,0,0,4.531-4.6,4.66,4.66,0,0,0-.055-0.54,4.414,4.414,0,0,0,.538.053,4.524,4.524,0,0,0,4.186-2.833,4.637,4.637,0,0,0-.984-5.006l-0.558-.566,1.812-1.837a6.462,6.462,0,0,0,.065-8.966l6.829-6.926A1.007,1.007,0,0,0,430,374.968Zm-49.173,23.449a2.627,2.627,0,0,1,0-3.674l3.76-3.814a2.538,2.538,0,0,1,2.475-.673,2.58,2.58,0,0,1,1.811,1.838,2.623,2.623,0,0,1-.663,2.509l-3.76,3.814A2.6,2.6,0,0,1,380.827,398.417Zm8.632,5.09a2.539,2.539,0,0,1-3.619,0h0a2.63,2.63,0,0,1,0-3.675l3.761-3.814a2.536,2.536,0,0,1,3.621,0,2.626,2.626,0,0,1,0,3.673Zm5.016,2.54-1.878,1.9a1.662,1.662,0,0,1-2.37,0,1.72,1.72,0,0,1,0-2.4l0.622-.631,0,0,3.76-3.813h0l0.626-.635a1.66,1.66,0,0,1,2.368,0,1.716,1.716,0,0,1,0,2.4l-3.136,3.18Zm3.763,3.812a1.662,1.662,0,0,1-2.37,0,1.719,1.719,0,0,1,0-2.4l3.136-3.18,0,0,1.878-1.9a1.659,1.659,0,0,1,1.619-.439,1.688,1.688,0,0,1,1.185,1.2,1.715,1.715,0,0,1-.434,1.642Zm6.894,0.636h0a1.662,1.662,0,0,1-2.37,0l-1.185-1.2,2.371-2.4,1.184,1.2A1.722,1.722,0,0,1,405.132,410.5Zm15.041-11.442h0a2.539,2.539,0,0,1-3.623,0l-8.147-8.264a0.974,0.974,0,0,0-1.39,0,1.008,1.008,0,0,0,0,1.411l8.147,8.264a2.58,2.58,0,1,1-3.639,3.659l-2.474-2.4a0.975,0.975,0,0,0-1.389.033,1.007,1.007,0,0,0,.029,1.408l2.459,2.384,0.626,0.635a1.713,1.713,0,0,1,.437,1.642,1.687,1.687,0,0,1-1.186,1.2,1.659,1.659,0,0,1-1.62-.442l-3.173-3.218a3.709,3.709,0,0,0-.759-4.573,3.582,3.582,0,0,0-4.569-.176,3.568,3.568,0,0,0-3.979-2.6,4.575,4.575,0,0,0-1.442-3.549,4.435,4.435,0,0,0-3.607-1.161,4.593,4.593,0,0,0-2.5-4.678,4.466,4.466,0,0,0-5.174.884l-2.439,2.473-1.186-1.2a4.446,4.446,0,0,1,0-6.216l0.628-.635a1.007,1.007,0,0,0,.288-0.706c0-.015-0.008-0.03-0.009-0.045a0.991,0.991,0,0,0-.279-0.66l0,0-6.824-6.921,12.4-12.575,6.825,6.923a0.973,0.973,0,0,0,1.39,0,4.257,4.257,0,0,1,4.5-1.024l-8.394,8.513a4.64,4.64,0,0,0,0,6.492,4.486,4.486,0,0,0,6.4,0l6.2-6.287,17.479,17.728A2.618,2.618,0,0,1,420.173,399.053Zm0.627-17.162a1.007,1.007,0,0,0,0,1.41l0.628,0.636a4.447,4.447,0,0,1,0,6.217l-1.813,1.838-15.531-15.753L405.9,374.4a1.007,1.007,0,0,0,0-1.41,0.973,0.973,0,0,0-1.391,0l-2.5,2.54,0,0,0,0-6.892,6.99a2.581,2.581,0,0,1-3.623-3.676l9.4-9.534a4.3,4.3,0,0,1,6.131,0l1.253,1.271a0.972,0.972,0,0,0,1.39,0,1.007,1.007,0,0,0,0-1.41l-0.558-.566,6.13-6.218,12.4,12.574Z" transform="translate(-338.5 -323.5)"/>
</svg>
