<svg id="our_vision" xmlns="http://www.w3.org/2000/svg" xmlns:xlink="http://www.w3.org/1999/xlink" width="125" height="125" viewBox="0 0 125 125">
  <defs>
    <style>
      .cls-1 {
        stroke-width: 1px;
        fill: url(#linear-gradient);
        stroke: url(#linear-gradient-2);
      }

      .cls-2 {
        fill: #fff;
        fill-rule: evenodd;
      }
    </style>
    <linearGradient id="linear-gradient" x1="62.5" y1="0.5" x2="62.5" y2="124.5" gradientUnits="userSpaceOnUse">
      <stop offset="0" stop-color="#fbaedc"/>
      <stop offset="1" stop-color="#fc7db9"/>
    </linearGradient>
    <linearGradient id="linear-gradient-2" x1="62.5" y1="124.5" x2="62.5" y2="0.5" gradientUnits="userSpaceOnUse">
      <stop offset="0"/>
      <stop offset="1" stop-color="#fff"/>
    </linearGradient>
  </defs>
  <circle class="cls-1" cx="62.5" cy="62.5" r="62"/>
  <path class="cls-2" d="M1516.32,400.292l-10.65-6v-1.055a4.13,4.13,0,0,1,1.78-3.294,13.859,13.859,0,0,0,4.92-16.354,15.679,15.679,0,0,0-28.97.6,13.91,13.91,0,0,0,5.07,15.7,4.344,4.344,0,0,1,1.86,3.456v0.951l-10.65,6a7.167,7.167,0,0,0-3.72,6.172V410.1a0.932,0.932,0,0,0,.96.9h42.16a0.932,0.932,0,0,0,.96-0.9v-3.636A7.166,7.166,0,0,0,1516.32,400.292Zm-9.05-3-5.27,2.7-2.32-2.184,4.97-2c0.01,0.008.02,0.02,0.03,0.028Zm-7.53,3.122L1498.48,402h-0.96l-1.26-1.589,1.74-1.639Zm-10.08-11.939a12.239,12.239,0,0,1-5.07-10.4c0.33-6.5,5.85-11.721,12.77-12.062a13.462,13.462,0,0,1,13.22,8.2,12.145,12.145,0,0,1-4.31,14.311,5.877,5.877,0,0,0-2.52,4.71v0.974l-5.75,2.315-5.75-2.315v-0.867A6.08,6.08,0,0,0,1489.66,388.472Zm1.64,7.367c0.02-.01.03-0.025,0.05-0.036l4.97,2-2.32,2.184-5.27-2.7ZM1477.87,409.2v-2.736a5.322,5.322,0,0,1,2.8-4.629l5.48-3.092,6.37,10.457h-14.65Zm16.12-1.211-5.27-8.655,4.99,2.556a1.013,1.013,0,0,0,.46.11,0.979,0.979,0,0,0,.67-0.264l0.05-.039,1.07,1.348Zm1.56,1.211,2.16-5.4h0.58l2.16,5.4h-4.9Zm4.49-6.155,1.07-1.348,0.05,0.039a1,1,0,0,0,1.13.154l4.99-2.556-5.27,8.655Zm18.08,6.155h-14.64l6.37-10.457,5.48,3.092a5.292,5.292,0,0,1,2.79,4.629V409.2ZM1498,369.6c5.29,0,9.58,4.032,9.58,9a0.962,0.962,0,0,0,1.92,0c-0.01-5.962-5.15-10.793-11.5-10.8A0.9,0.9,0,1,0,1498,369.6Zm0-7.2a0.932,0.932,0,0,0,.96-0.9v-3.6a0.962,0.962,0,0,0-1.92,0v3.6A0.932,0.932,0,0,0,1498,362.4Zm-9.93,1.841a0.959,0.959,0,0,0,.83.45,0.974,0.974,0,0,0,.83-0.45,0.858,0.858,0,0,0,0-.9l-1.92-3.118a1,1,0,0,0-1.31-.329,0.865,0.865,0,0,0-.35,1.229Zm-9.64,4.788,3.32,1.8a0.992,0.992,0,0,0,1.31-.329,0.866,0.866,0,0,0-.35-1.23l-3.32-1.8a1,1,0,0,0-1.31.33A0.872,0.872,0,0,0,1478.43,369.029Zm1.36,10.471a0.9,0.9,0,1,0,0-1.8h-3.83a0.9,0.9,0,1,0,0,1.8h3.83Zm-1.36,8.67a0.873,0.873,0,0,0-.44,1.013,0.944,0.944,0,0,0,.92.667,0.989,0.989,0,0,0,.48-0.121l3.32-1.8a0.865,0.865,0,0,0,.35-1.229,0.994,0.994,0,0,0-1.31-.33Zm35.09-1.89a0.945,0.945,0,0,0-.58.42,0.865,0.865,0,0,0,.35,1.229l3.32,1.8a1,1,0,0,0,1.31-.329,0.873,0.873,0,0,0-.35-1.23l-3.32-1.8A1.018,1.018,0,0,0,1513.52,386.28Zm6.52-8.58h-3.83a0.9,0.9,0,1,0,0,1.8h3.83A0.9,0.9,0,1,0,1520.04,377.7Zm-5.79-6.871,3.32-1.8a0.872,0.872,0,0,0,.35-1.229,0.974,0.974,0,0,0-.58-0.42,1.018,1.018,0,0,0-.73.09l-3.32,1.8a0.866,0.866,0,0,0-.35,1.23A0.992,0.992,0,0,0,1514.25,370.829Zm-7.15-6.138a0.959,0.959,0,0,0,.83-0.45l1.92-3.118a0.858,0.858,0,0,0,0-.9,0.99,0.99,0,0,0-1.66,0l-1.92,3.118a0.858,0.858,0,0,0,0,.9A0.974,0.974,0,0,0,1507.1,364.691Z" transform="translate(-1435.5 -323.5)"/>
</svg>
