<svg id="our_mission" xmlns="http://www.w3.org/2000/svg" xmlns:xlink="http://www.w3.org/1999/xlink" width="125" height="125" viewBox="0 0 125 125">
  <defs>
    <style>
      .cls-1 {
        stroke-width: 1px;
        fill: url(#linear-gradient);
        stroke: url(#linear-gradient-2);
      }

      .cls-2 {
        fill: #fff;
        fill-rule: evenodd;
      }
    </style>
    <linearGradient id="linear-gradient" x1="62.5" y1="0.5" x2="62.5" y2="124.5" gradientUnits="userSpaceOnUse">
      <stop offset="0" stop-color="#be69fe"/>
      <stop offset="1" stop-color="#6e6af4"/>
    </linearGradient>
    <linearGradient id="linear-gradient-2" x1="62.5" y1="124.5" x2="62.5" y2="0.5" gradientUnits="userSpaceOnUse">
      <stop offset="0"/>
      <stop offset="1" stop-color="#fff"/>
    </linearGradient>
  </defs>
  <circle class="cls-1" cx="62.5" cy="62.5" r="62"/>
  <path class="cls-2" d="M1162,413h-16.11c-0.74-3.8-5.63-6.689-11.89-6.97V368h7v4a2,2,0,0,0,2,2h13a2,2,0,0,0,2-2v-8.077a2,2,0,0,0-2-2h-6v-3a1.964,1.964,0,0,0-2-1.923h-14v-1a1,1,0,0,0-2,0v28.962a3.973,3.973,0,0,0-2-.557h-3.76a1.991,1.991,0,0,1-1.41-.586l-2.79-2.786a10.055,10.055,0,1,0-10.95-.628h-2.69a3.4,3.4,0,0,0-3.4,3.4v11.206a3.4,3.4,0,0,0,3.4,3.4h3.6v12a4.544,4.544,0,0,0,.81,2.6H1104a1,1,0,0,0,0,2h58A1,1,0,0,0,1162,413Zm-12.35-45.241c0.01-.01.02-0.023,0.03-0.033a1.645,1.645,0,0,0,.21-0.286c0.01-.035.03-0.07,0.04-0.106a1.268,1.268,0,0,0,.06-0.273c0-.021.01-0.039,0.01-0.061v-3.077h6V372h-11.29ZM1143,370.83V368h3.3ZM1134,359l14-.077V366h-6a0.96,0.96,0,0,0-.18.037l-7.82.04V359h0Zm-16,5.467a8.02,8.02,0,0,1,6.94,6.938H1119a1,1,0,0,1-1-1v-5.938Zm-6,31.938h-3.6a1.4,1.4,0,0,1-1.4-1.4V383.8a1.4,1.4,0,0,1,1.4-1.4h3.6v14Zm-3-23.773h0a8.009,8.009,0,0,1,7-8.166v5.939a3,3,0,0,0,3,3h5.94a8.007,8.007,0,0,1-8.17,7A8.1,8.1,0,0,1,1109,372.632Zm11,37.773a2.594,2.594,0,0,1-2.59,2.6h-0.82a2.594,2.594,0,0,1-2.59-2.6V398.231h6v12.174h0Zm0-14.174h-6V383.819l6,6v6.412Zm-4.59-13.826h5.18l2.82,2.828a4.045,4.045,0,0,0,2.83,1.172H1130a2,2,0,0,1,0,4h-5.76a1.991,1.991,0,0,1-1.41-.586l-1.12-1.121Zm6.59,9.308a4.015,4.015,0,0,0,2.24.692H1130a3.982,3.982,0,0,0,2-.556V406.03c-4.26.191-7.88,1.591-10,3.663v-17.98h0ZM1122.16,413c0.9-2.8,5.5-5,10.84-5s9.94,2.2,10.84,5h-21.68Z" transform="translate(-1070.5 -323.5)"/>
</svg>
